<svg width="300" height="207" viewBox="0 0 300 207" fill="none" xmlns="http://www.w3.org/2000/svg">
<path fill-rule="evenodd" clip-rule="evenodd" d="M1.35958 161.371H5.77823C9.48309 161.371 10.1969 161.439 10.1969 161.882C10.1969 162.154 9.4491 163.516 6.8659 167.33L8.29346 168.113C9.04123 168.556 9.99294 169.305 10.3668 169.816C10.8087 170.429 11.0806 171.45 11.1486 172.778C11.2506 174.481 11.1486 175.026 10.4688 175.979C10.0609 176.626 9.24517 177.477 8.73532 177.852C8.08952 178.294 7.13781 178.601 6.01616 178.669C4.65657 178.737 3.9088 178.567 2.88911 177.988C2.00539 177.477 1.25761 176.66 0.747771 175.673C0.339896 174.821 0 173.732 0 173.187C0 172.438 0.135958 172.267 0.84974 172.267C1.46155 172.267 1.69948 172.438 1.69948 172.948C1.69948 173.323 1.93741 174.14 2.20932 174.753C2.48124 175.332 3.16103 176.115 3.73885 176.456C4.28269 176.762 5.13243 177.035 5.60828 177.035C6.08414 177.035 6.93387 176.796 7.47771 176.524C8.02154 176.251 8.73532 175.673 9.00724 175.264C9.27916 174.821 9.51708 173.834 9.51708 173.051C9.51708 171.927 9.27916 171.314 8.56537 170.531C7.88558 169.748 7.23978 169.407 6.11812 169.237C5.03046 169.101 4.58859 168.862 4.52061 168.454C4.45264 168.113 5.09844 166.853 5.94818 165.627C6.79792 164.401 7.47771 163.346 7.47771 163.244C7.47771 163.142 6.11812 163.073 4.41865 163.073C1.39357 163.073 1.35958 163.073 1.35958 162.222V161.371ZM295.132 161.371C295.811 161.371 296.865 161.643 297.409 161.984C297.987 162.29 298.666 163.073 298.938 163.686C299.21 164.265 299.448 165.082 299.448 165.457C299.448 165.968 299.21 166.138 298.598 166.138C297.953 166.138 297.749 165.968 297.749 165.389C297.749 164.946 297.409 164.265 296.967 163.823C296.559 163.38 295.811 163.073 295.301 163.073C294.758 163.073 294.044 163.38 293.67 163.754C293.296 164.129 292.99 164.844 292.99 165.389C292.99 165.9 293.16 166.547 293.398 166.853C293.636 167.16 294.962 168.181 296.321 169.066C298.123 170.258 299.006 171.11 299.482 172.097C299.992 173.085 300.094 173.8 299.924 174.651C299.822 175.298 299.448 176.217 299.108 176.694C298.802 177.171 297.919 177.818 297.205 178.192C296.253 178.635 295.505 178.771 294.52 178.601C293.772 178.465 292.854 178.09 292.446 177.784C292.072 177.477 291.529 176.83 291.223 176.354C290.917 175.877 290.611 174.957 290.543 174.31C290.475 173.357 290.577 173.119 291.121 173.016C291.495 172.948 291.903 173.085 292.038 173.357C292.174 173.595 292.31 174.14 292.31 174.583C292.31 174.991 292.752 175.707 293.33 176.183C293.908 176.66 294.656 177.035 295.03 177.035C295.403 177.035 296.185 176.796 296.729 176.524C297.443 176.183 297.851 175.604 298.123 174.753C298.429 173.629 298.395 173.323 297.851 172.608C297.477 172.131 296.423 171.246 295.505 170.633C294.588 170.02 293.33 169.135 292.752 168.692C292.038 168.147 291.529 167.364 291.325 166.581C291.121 165.798 291.121 164.844 291.325 164.197C291.495 163.584 292.14 162.699 292.752 162.222C293.466 161.677 294.282 161.371 295.132 161.371V161.371ZM110.398 191.336C110.602 191.336 110.806 191.438 110.806 191.609C110.806 191.745 110.432 192.188 109.956 192.63C109.446 193.073 109.107 193.754 109.107 194.333C109.107 194.844 109.412 195.559 109.854 195.967C110.296 196.376 111.622 197.193 112.845 197.806C114.069 198.419 115.565 199.338 116.176 199.815C116.788 200.292 117.468 201.177 117.638 201.722C117.808 202.301 117.842 203.186 117.706 203.731C117.57 204.276 116.992 205.127 116.414 205.638C115.836 206.149 114.749 206.659 113.865 206.796C113.015 206.966 111.724 206.966 110.976 206.864C110.228 206.762 109.073 206.319 108.427 205.876C107.781 205.468 107.033 204.684 106.829 204.174C106.591 203.663 106.455 202.948 106.557 202.573C106.659 202.199 107.135 201.62 107.611 201.313C108.325 200.803 108.597 200.769 109.31 201.143C109.752 201.347 110.126 201.756 110.126 201.994C110.126 202.199 109.888 202.641 109.616 202.914C109.209 203.322 109.175 203.663 109.446 204.548C109.684 205.297 110.024 205.672 110.636 205.808C111.112 205.91 111.486 206.149 111.486 206.319C111.486 206.489 111.758 206.625 112.098 206.591C112.404 206.523 112.743 206.421 112.845 206.319C112.947 206.217 113.457 205.91 114.035 205.638C114.613 205.331 115.157 204.685 115.395 204.038C115.701 203.05 115.633 202.812 114.885 202.028C114.409 201.552 112.981 200.598 111.656 199.951C110.364 199.27 108.903 198.453 108.427 198.078C107.951 197.704 107.407 197.091 107.169 196.682C106.931 196.274 106.761 195.457 106.727 194.912C106.727 194.367 106.965 193.516 107.271 193.073C107.577 192.664 108.291 192.085 108.903 191.813C109.48 191.575 110.16 191.37 110.398 191.336V191.336ZM185.855 191.336C186.059 191.336 186.263 191.575 186.263 191.847C186.263 192.119 186.025 192.46 185.753 192.63C185.447 192.766 185.073 193.277 184.903 193.822C184.631 194.571 184.699 194.912 185.345 195.627C185.753 196.138 187.181 197.091 188.472 197.738C189.798 198.385 191.361 199.338 191.973 199.815C192.585 200.292 193.197 201.177 193.367 201.722C193.537 202.267 193.605 203.118 193.537 203.595C193.435 204.072 192.959 204.855 192.449 205.331C191.939 205.842 190.987 206.387 190.342 206.625C189.696 206.83 188.608 207 187.962 207C187.317 207 186.161 206.796 185.447 206.557C184.733 206.353 183.68 205.638 183.17 205.059C182.626 204.446 182.184 203.629 182.184 203.254C182.184 202.88 182.558 202.199 183.034 201.722C183.476 201.245 184.088 200.871 184.393 200.871C184.665 200.871 185.141 201.109 185.413 201.381C185.685 201.654 185.923 202.063 185.923 202.233C185.923 202.403 185.753 202.573 185.583 202.573C185.413 202.573 185.175 202.88 185.073 203.254C184.971 203.629 185.107 204.344 185.345 204.821C185.549 205.297 186.093 205.74 186.535 205.842C186.943 205.91 187.283 206.149 187.283 206.319C187.283 206.489 187.555 206.625 187.894 206.591C188.2 206.523 188.54 206.421 188.642 206.319C188.744 206.217 189.254 205.91 189.798 205.638C190.376 205.331 190.919 204.684 191.123 204.106C191.361 203.288 191.293 202.914 190.75 202.233C190.41 201.756 188.88 200.735 187.419 199.985C185.957 199.202 184.258 198.147 183.646 197.602C182.796 196.819 182.558 196.342 182.524 195.354C182.524 194.639 182.694 193.754 182.864 193.379C183.034 193.005 183.714 192.392 184.325 192.017C184.903 191.643 185.617 191.336 185.855 191.336V191.336ZM163.898 191.677C164.781 191.677 165.597 191.847 165.699 192.017C165.801 192.188 165.733 192.426 165.529 192.528C165.325 192.63 165.189 194.707 165.223 197.738C165.223 200.666 165.393 203.22 165.631 203.935C165.869 204.65 166.413 205.297 167.059 205.638C167.637 205.91 168.112 206.251 168.18 206.421C168.214 206.557 168.86 206.455 169.608 206.251C170.322 206.013 171.274 205.468 171.715 205.025C172.463 204.31 172.497 204.003 172.599 198.555C172.633 195.082 172.531 192.698 172.327 192.46C172.089 192.154 172.123 191.949 172.429 191.813C172.667 191.711 173.177 191.677 173.551 191.745C173.925 191.847 174.129 192.085 174.027 192.392C173.925 192.664 173.789 195.491 173.687 198.725C173.517 204.378 173.483 204.582 172.667 205.434C172.191 205.944 171.545 206.319 171.24 206.319C170.9 206.319 170.56 206.489 170.458 206.659C170.356 206.83 169.642 207 168.86 207C168.044 207 166.821 206.83 166.141 206.659C165.427 206.455 164.34 205.876 162.64 204.344L162.538 198.589C162.47 195.457 162.266 192.698 162.096 192.528C161.926 192.358 161.892 192.085 162.028 191.915C162.13 191.779 162.98 191.677 163.898 191.677V191.677ZM134.735 192.017C134.939 192.017 135.109 192.119 135.109 192.256C135.075 192.426 134.803 193.141 134.463 193.89C134.021 194.844 133.851 196.069 133.851 197.976C133.851 199.475 134.021 201.313 134.225 202.063C134.429 202.812 134.905 203.935 135.279 204.548C135.652 205.127 136.298 205.774 136.74 205.944C137.148 206.149 137.352 206.285 137.148 206.319C136.978 206.319 137.046 206.489 137.318 206.659C137.726 206.932 137.692 207 137.08 207C136.638 207 135.72 206.762 135.041 206.455C134.327 206.183 133.375 205.604 132.967 205.195C132.525 204.787 131.846 203.833 131.438 203.084C130.962 202.097 130.758 201.075 130.758 199.338C130.724 197.5 130.928 196.58 131.574 195.286C132.016 194.367 132.831 193.243 133.341 192.8C133.885 192.358 134.497 192.017 134.735 192.017V192.017ZM181.742 0.000119297C182.082 -0.0339323 182.184 7.18502 182.354 68.7844L200.539 58.2284C210.531 52.4056 218.825 47.7405 218.995 47.8086C219.131 47.9108 219.233 69.4995 219.233 143.664H212.435V101.44C212.435 78.2167 212.367 59.2159 212.265 59.2159C212.163 59.2159 205.365 63.1319 182.184 76.5822V143.664H175.726V112.166C175.726 94.8339 175.624 80.6684 175.488 80.6684C175.318 80.6684 171.749 82.7115 159.751 89.6921V143.664H153.293L153.327 85.6059L175.726 72.6663V41.9177C175.726 17.5027 175.624 11.2372 175.318 11.3393C175.08 11.4074 163.252 18.0475 123.212 40.7599L123.144 51.1797C123.076 56.9004 123.11 61.5995 123.212 61.5995C123.314 61.5995 128.549 58.637 134.871 54.9935C141.159 51.35 146.427 48.4215 146.597 48.5237C146.733 48.5918 146.835 70.1124 146.835 144.004H140.037V101.951C140.037 78.421 139.901 59.931 139.731 59.9651C139.595 60.0332 135.754 62.2125 123.008 69.6017L123.042 143.664L116.414 143.494L116.074 73.5517L87.6931 89.8624V144.004H80.8952L81.0652 85.9805L116.074 65.7879L116.244 37.0824L117.502 36.2992C118.216 35.8905 132.865 27.5479 150.064 17.7751C167.263 8.00225 181.538 0.000119297 181.742 0.000119297V0.000119297ZM238.437 159.089C238.811 159.123 239.151 159.43 239.185 159.736C239.253 160.145 238.913 160.52 237.077 161.269L238.777 161.507C239.864 161.643 241.054 162.12 242.074 162.835C242.958 163.414 244.079 164.538 244.555 165.287C245.031 166.036 245.575 167.398 245.745 168.351C246.017 169.543 246.017 170.565 245.745 171.654C245.575 172.574 245.201 173.698 244.929 174.208C244.657 174.753 243.943 175.638 243.297 176.217C242.686 176.83 241.632 177.579 240.986 177.92C240.136 178.363 239.083 178.567 237.247 178.567C235.412 178.567 234.358 178.363 233.508 177.92C232.863 177.579 231.809 176.83 231.197 176.217C230.551 175.638 229.838 174.753 229.566 174.208C229.294 173.698 228.92 172.574 228.75 171.654C228.478 170.565 228.478 169.543 228.75 168.351C228.92 167.398 229.464 166.036 229.94 165.287C230.415 164.538 231.537 163.414 232.421 162.835C233.304 162.222 234.29 161.711 234.63 161.711C235.004 161.711 235.174 161.473 235.14 161.03C235.106 160.554 235.48 160.145 236.432 159.668C237.145 159.294 238.063 159.055 238.437 159.089V159.089ZM231.911 165.661C231.299 166.41 230.653 167.67 230.483 168.522C230.279 169.373 230.245 170.599 230.415 171.246C230.551 171.893 230.959 172.982 231.333 173.629C231.707 174.276 232.659 175.264 233.474 175.843C234.732 176.728 235.208 176.864 237.247 176.864C239.287 176.864 239.762 176.728 241.02 175.843C241.836 175.264 242.788 174.276 243.161 173.629C243.535 172.982 243.943 171.893 244.079 171.246C244.249 170.599 244.215 169.373 244.011 168.522C243.841 167.67 243.195 166.41 242.584 165.661C242.006 164.912 240.884 164.027 240.136 163.686C239.389 163.38 238.097 163.073 237.247 163.073C236.398 163.073 235.106 163.38 234.358 163.686C233.61 164.027 232.489 164.912 231.911 165.661V165.661ZM33.9896 161.371H36.7767C38.7481 161.371 40.0057 161.575 40.9574 161.984C41.7052 162.324 42.6909 163.142 43.1328 163.788C43.6086 164.435 44.0505 165.559 44.1185 166.308C44.1865 167.057 44.0505 168.215 43.7786 168.862C43.5067 169.509 42.8269 170.429 41.2294 171.757L42.8609 174.991C43.7786 176.762 44.3904 178.329 44.2884 178.465C44.1525 178.635 43.7786 178.737 43.4387 178.737C42.9968 178.737 42.351 177.818 39.5979 172.608H35.6891V175.673C35.6891 178.703 35.6891 178.737 33.9896 178.737V161.371ZM35.6891 170.905C38.0683 170.905 39.258 170.701 39.8358 170.463C40.4476 170.19 41.2973 169.543 41.7392 168.998C42.1471 168.454 42.521 167.602 42.487 167.057C42.487 166.547 42.283 165.729 42.0111 165.185C41.7732 164.674 40.9914 163.993 40.3116 163.652C39.6319 163.346 38.3063 163.073 37.3885 163.073H35.6891V170.905ZM57.4424 161.371V162.222C57.4424 163.073 57.4084 163.073 51.3243 163.073V169.203H54.0434C56.7286 169.203 56.7626 169.203 56.7626 170.054C56.7626 170.905 56.7286 170.905 51.3243 170.905V177.035H54.3833C57.4084 177.035 57.4424 177.035 57.4424 178.737L49.4548 178.567L49.3869 170.395C49.3869 165.9 49.4209 162.052 49.4888 161.813C49.5568 161.473 50.6445 161.371 57.4424 161.371V161.371ZM71.854 161.371C73.2136 161.371 74.4712 161.643 75.4569 162.086C76.3066 162.46 77.3263 163.107 77.7342 163.516C78.448 164.197 78.448 164.333 78.0061 164.844C77.5302 165.423 77.3943 165.389 75.9327 164.333C74.5392 163.346 74.1653 163.244 71.922 163.244C69.8486 163.244 69.2708 163.38 68.2171 164.095C67.5033 164.572 66.5856 165.525 66.1097 166.206C65.6339 166.921 65.158 168.215 65.0561 169.101C64.9201 170.122 64.9881 171.246 65.294 172.097C65.5319 172.846 66.2117 173.97 66.7555 174.617C67.3334 175.264 68.421 176.047 69.1688 176.388C69.9166 176.728 71.1402 177.035 71.888 177.035C72.6357 177.035 73.9273 176.694 76.3066 175.502L76.3746 173.016C76.4766 170.633 76.5105 170.565 77.3263 170.565C78.176 170.565 78.176 170.599 78.176 176.354L76.8844 177.171C76.2046 177.613 75.015 178.158 74.2672 178.397C73.5195 178.635 72.1259 178.771 71.2082 178.669C70.2565 178.601 68.8969 178.226 68.1491 177.852C67.4013 177.511 66.2117 176.592 65.4979 175.843C64.7841 175.094 64.0024 173.8 63.6965 172.948C63.4246 172.097 63.2206 170.803 63.2206 170.054C63.2206 169.305 63.3906 168.113 63.5605 167.398C63.7645 166.717 64.4103 165.491 64.9881 164.708C65.6339 163.891 66.9255 162.869 67.9452 162.324C69.3727 161.575 70.2565 161.371 71.854 161.371V161.371ZM83.2745 161.371H84.974V178.737H83.2745V161.371ZM96.0886 161.371C96.7004 161.371 97.6861 161.609 98.2299 161.882C98.7737 162.154 99.4875 162.835 99.7594 163.414C100.031 163.959 100.269 164.81 100.269 165.287C100.269 165.968 100.099 166.138 99.4195 166.138C98.7737 166.138 98.5698 165.968 98.5698 165.355C98.5698 164.946 98.2299 164.265 97.788 163.823C97.3802 163.38 96.6324 163.073 96.0886 163.073C95.5787 163.073 94.8649 163.38 94.491 163.754C94.1172 164.129 93.8112 164.844 93.8112 165.355C93.8112 165.9 93.9812 166.547 94.2191 166.853C94.4571 167.16 95.7147 168.079 97.0063 168.896C98.2979 169.713 99.6574 170.837 100.031 171.416C100.405 171.961 100.779 172.982 100.847 173.629C100.949 174.344 100.745 175.298 100.371 175.979C100.031 176.626 99.3855 177.443 98.9097 177.784C98.4338 178.124 97.4481 178.499 96.7004 178.601C95.7826 178.703 94.9669 178.567 94.1511 178.158C93.5053 177.818 92.6216 177.001 92.1797 176.354C91.7719 175.707 91.432 174.651 91.432 174.038C91.432 173.119 91.5339 172.948 92.1797 173.016C92.7576 173.085 92.9955 173.425 93.1654 174.31C93.3014 174.957 93.8112 175.843 94.2871 176.251C94.763 176.694 95.4767 177.035 95.8506 177.035C96.2245 177.035 96.9043 176.864 97.3802 176.694C97.856 176.524 98.4678 175.843 98.7737 175.23C99.0796 174.651 99.2496 173.834 99.1476 173.459C99.0456 173.085 98.5358 172.335 97.992 171.825C97.4821 171.28 96.1905 170.36 95.1708 169.782C94.1511 169.169 93.0635 168.215 92.7236 167.67C92.3837 167.091 92.1118 166.07 92.1118 165.355C92.1118 164.674 92.3837 163.72 92.6896 163.244C93.0295 162.767 93.6753 162.154 94.1511 161.882C94.627 161.609 95.5107 161.405 96.0886 161.371V161.371ZM105.368 161.371H114.885V162.222C114.885 163.039 114.783 163.073 111.146 163.073V178.737H109.446V163.073H107.407C105.47 163.073 105.368 163.039 105.368 162.222V161.371ZM119.983 161.371H122.77C125.014 161.371 125.897 161.507 127.121 162.12C128.141 162.631 128.888 163.346 129.398 164.265C129.84 165.014 130.18 166.138 130.18 166.717C130.18 167.33 129.976 168.351 129.738 168.93C129.466 169.543 128.787 170.463 127.121 171.927L128.821 175.162C130.316 178.022 130.452 178.431 129.908 178.601C129.602 178.703 129.16 178.737 128.99 178.669C128.787 178.567 127.971 177.171 125.592 172.608H121.683V175.673C121.683 178.703 121.683 178.737 119.983 178.737V161.371ZM121.683 170.905C124.062 170.905 125.15 170.735 125.659 170.531C126.203 170.326 126.951 169.85 127.393 169.441C127.801 169.032 128.243 168.147 128.379 167.5C128.515 166.649 128.379 165.968 127.937 165.185C127.563 164.572 126.781 163.857 126.169 163.584C125.592 163.312 124.3 163.073 123.382 163.073H121.683V170.905ZM142.926 161.371C144.354 161.371 145.475 161.609 146.665 162.154C147.617 162.597 148.942 163.618 149.656 164.47C150.37 165.287 151.084 166.513 151.254 167.16C151.458 167.807 151.594 169.203 151.594 170.224C151.594 171.45 151.322 172.676 150.812 173.8C150.37 174.719 149.486 175.945 148.84 176.49C148.195 177.035 147.209 177.682 146.665 177.988C146.121 178.26 144.728 178.567 143.606 178.669C141.907 178.805 141.261 178.703 139.697 177.988C138.677 177.511 137.386 176.694 136.842 176.149C136.332 175.604 135.55 174.549 135.177 173.8C134.633 172.778 134.463 171.825 134.463 170.054C134.429 168.351 134.633 167.262 135.109 166.308C135.482 165.559 136.332 164.435 136.978 163.788C137.624 163.142 138.779 162.324 139.527 161.984C140.343 161.643 141.703 161.371 142.926 161.371ZM138.202 165.082C137.658 165.559 136.944 166.581 136.604 167.33C136.264 168.079 135.958 169.135 135.958 169.713C135.958 170.258 136.128 171.314 136.298 171.995C136.502 172.71 137.148 173.834 137.726 174.549C138.338 175.23 139.459 176.047 140.207 176.388C140.955 176.728 142.178 177.035 142.926 177.035C143.742 177.035 145 176.66 146.121 176.115C147.345 175.502 148.297 174.685 148.84 173.834C149.418 172.948 149.758 171.859 149.86 170.769C149.928 169.816 149.792 168.42 149.52 167.67C149.282 166.921 148.67 165.866 148.195 165.321C147.719 164.776 146.733 164.027 145.985 163.72C145.237 163.38 143.844 163.107 142.926 163.107C141.974 163.107 140.751 163.346 140.207 163.652C139.663 163.925 138.745 164.572 138.202 165.082V165.082ZM162.504 161.303L166.311 161.439C169.268 161.507 170.424 161.711 171.477 162.222C172.225 162.597 173.313 163.414 173.925 163.993C174.537 164.606 175.284 165.627 175.59 166.206C175.896 166.819 176.236 168.079 176.338 169.032C176.44 170.02 176.304 171.416 176.032 172.438C175.726 173.527 175.046 174.685 174.027 175.775C173.109 176.762 171.885 177.648 170.968 177.988C169.914 178.397 168.384 178.567 162.64 178.567L162.504 161.303ZM164.17 177.035C167.059 177.035 168.554 176.864 169.336 176.66C170.118 176.49 171.375 175.843 172.123 175.23C172.837 174.617 173.721 173.527 174.061 172.778C174.401 172.029 174.672 170.803 174.672 170.054C174.672 169.305 174.401 168.079 174.061 167.33C173.687 166.581 172.973 165.559 172.429 165.048C171.919 164.538 170.9 163.891 170.186 163.584C169.438 163.278 167.909 163.073 166.549 163.073H164.17V177.035ZM180.145 161.371H188.302V162.222C188.302 163.073 188.268 163.073 185.073 163.073C181.878 163.073 181.844 163.073 181.98 163.823C182.082 164.265 182.15 165.627 182.184 169.203H184.733C187.215 169.203 187.283 169.203 187.283 170.054C187.283 170.871 187.215 170.905 182.354 170.871L182.082 172.165C181.946 172.88 181.844 174.242 181.844 177.035H185.073C188.268 177.035 188.302 177.035 188.302 178.737H180.145V161.371ZM202.34 161.439C203.088 161.541 203.088 161.541 203.088 178.567H201.388L201.32 170.395C201.286 165.9 201.32 162.018 201.422 161.779C201.524 161.507 201.932 161.371 202.34 161.439ZM209.036 161.371L209.784 161.337C210.396 161.337 211.143 162.222 213.353 165.423C214.882 167.704 216.242 169.543 216.344 169.543C216.412 169.543 217.737 167.704 219.233 165.457C221.476 162.052 222.088 161.371 223.617 161.371L223.481 177.205L221.612 177.375L221.442 165.729L219.063 168.998C217.737 170.803 216.48 172.267 216.242 172.267C216.004 172.267 214.78 170.769 211.245 165.695L210.905 177.205L209.036 177.375V161.371ZM251.693 161.405C252.611 161.541 252.679 161.711 254.412 168.011C255.398 171.552 256.281 174.242 256.417 173.97C256.519 173.663 257.335 170.769 258.253 167.5C259.816 161.882 259.952 161.541 260.7 161.541C261.346 161.541 261.516 161.677 261.414 162.222C261.346 162.597 260.326 166.41 259.137 170.735C257.947 175.026 256.757 178.669 256.519 178.805C256.281 178.941 255.942 178.873 255.772 178.669C255.568 178.499 254.446 174.855 253.29 170.599C252.101 166.376 251.081 162.529 250.979 162.086C250.809 161.405 250.877 161.337 251.693 161.405V161.405ZM267.158 161.371H275.316V162.222C275.316 163.073 275.282 163.073 268.858 163.073V169.203H271.577C274.228 169.203 274.296 169.203 274.296 170.054C274.296 170.871 274.228 170.905 268.858 170.905V177.035H272.087C275.282 177.035 275.316 177.035 275.316 178.737H267.158V161.371ZM282.453 161.371H284.153V178.737H282.453V161.371ZM19.612 161.711C20.0199 161.711 20.6997 161.848 21.0735 162.052C21.4474 162.222 21.9573 162.903 22.2632 163.584C22.705 164.674 22.705 164.878 22.1612 166.036C21.8213 166.785 21.2095 167.432 20.7336 167.636C20.2578 167.773 19.442 167.841 18.9322 167.704C18.4224 167.602 17.7086 167.194 17.3347 166.819C16.8928 166.376 16.6549 165.661 16.6209 164.844C16.6209 164.163 16.8248 163.312 17.0628 163.005C17.3007 162.733 17.8105 162.29 18.1844 162.086C18.5583 161.882 19.2041 161.711 19.612 161.711V161.711ZM17.9125 164.742C17.9465 165.048 18.1844 165.457 18.4224 165.729C18.6603 165.968 19.2041 166.104 19.68 166.07C20.1218 166.002 20.6317 165.695 20.8696 165.355C21.1415 164.912 21.1415 164.606 20.8696 164.163C20.6657 163.857 20.1218 163.516 19.646 163.482C19.2041 163.414 18.6263 163.55 18.3544 163.788C18.0825 164.027 17.8785 164.47 17.9125 164.742V164.742ZM123.654 188.204C123.96 188.272 124.436 188.578 124.742 188.816C125.014 189.089 125.49 189.225 125.829 189.123C126.169 189.021 126.509 189.089 126.611 189.293C126.679 189.463 126.543 189.838 126.237 190.144C125.931 190.417 125.456 190.655 125.116 190.655C124.81 190.655 124.198 190.417 123.79 190.144C123.382 189.872 122.838 189.634 122.6 189.668C122.362 189.702 121.989 189.702 121.751 189.668C121.479 189.634 121.411 189.429 121.581 189.055C121.717 188.748 122.125 188.374 122.464 188.238C122.838 188.135 123.348 188.101 123.654 188.204ZM179.465 187.931C180.009 187.931 180.553 188.033 180.621 188.169C180.723 188.306 180.281 188.953 179.703 189.566C179.091 190.179 178.343 190.655 178.037 190.587C177.528 190.485 177.528 190.349 177.969 189.191C178.411 188.135 178.649 187.931 179.465 187.931V187.931ZM114.239 191.609C114.647 191.745 115.429 192.256 115.972 192.766C116.482 193.311 116.924 194.094 116.924 194.571C116.924 195.014 116.618 195.729 116.244 196.103C115.87 196.478 115.327 196.785 115.055 196.785C114.749 196.785 114.307 196.546 114.035 196.274C113.559 195.797 113.593 195.661 114.103 194.878C114.681 194.06 114.681 193.992 113.933 193.005C113.525 192.46 113.253 191.881 113.321 191.711C113.389 191.541 113.797 191.507 114.239 191.609ZM123.994 191.404C124.3 191.472 125.49 194.06 127.019 197.976C128.413 201.518 129.84 204.753 130.18 205.127C130.554 205.502 130.826 205.978 130.826 206.217C130.86 206.523 130.248 206.625 128.719 206.557C126.747 206.489 126.611 206.421 126.679 205.706C126.713 205.297 126.441 204.208 126.033 203.322C125.625 202.437 125.286 201.552 125.252 201.381C125.218 201.177 124.742 199.917 124.198 198.521C123.654 197.159 123.11 195.967 123.042 195.899C122.94 195.865 122.396 197.125 121.853 198.76C121.309 200.394 120.595 202.335 120.255 203.084C119.915 203.833 119.643 204.719 119.643 205.025C119.643 205.366 119.779 205.706 119.983 205.808C120.153 205.876 120.221 206.115 120.153 206.319C120.051 206.489 119.371 206.659 118.624 206.659C117.74 206.659 117.23 206.489 117.23 206.217C117.23 205.978 117.536 205.502 117.944 205.127C118.318 204.753 119.711 201.484 121.071 197.874C122.838 193.073 123.62 191.336 123.994 191.404ZM139.153 191.472C139.731 191.575 140.717 192.119 141.329 192.596C141.974 193.107 142.79 194.06 143.13 194.741C143.47 195.388 143.844 196.614 143.946 197.466C144.082 198.283 144.014 199.815 143.81 200.871C143.606 201.926 142.994 203.356 142.416 204.174C141.839 204.991 140.989 205.808 140.547 206.047C140.071 206.285 139.629 206.387 139.527 206.319C139.425 206.217 139.697 205.434 140.105 204.616C140.717 203.391 140.887 202.471 140.853 200.36C140.853 198.862 140.649 196.785 140.377 195.763C140.071 194.639 139.493 193.516 138.915 192.937C138.406 192.426 137.998 191.847 138.032 191.609C138.066 191.37 138.474 191.336 139.153 191.472V191.472ZM188.982 191.336C189.152 191.336 189.866 191.609 190.546 191.915C191.225 192.256 192.007 192.835 192.245 193.209C192.517 193.584 192.721 194.231 192.721 194.639C192.721 195.082 192.415 195.729 192.041 196.103C191.667 196.478 191.157 196.785 190.919 196.785C190.682 196.785 190.206 196.58 189.832 196.308C189.254 195.899 189.22 195.729 189.56 195.354C189.798 195.116 190.002 194.469 190.002 193.958C190.002 193.447 189.73 192.835 189.39 192.596C189.05 192.358 188.744 191.983 188.71 191.745C188.676 191.507 188.778 191.336 188.982 191.336ZM152.613 191.677C153.531 191.677 154.381 191.813 154.483 192.017C154.551 192.188 154.483 192.426 154.313 192.528C154.075 192.63 153.973 195.116 153.973 198.998C153.973 202.846 154.075 205.366 154.313 205.468C154.483 205.536 154.653 205.842 154.653 206.149C154.653 206.523 154.211 206.659 152.783 206.659C151.729 206.659 150.812 206.489 150.744 206.319C150.642 206.115 150.71 205.876 150.914 205.808C151.118 205.706 151.254 203.118 151.254 199.168C151.254 195.184 151.118 192.63 150.914 192.528C150.71 192.426 150.642 192.188 150.744 192.017C150.846 191.813 151.696 191.677 152.613 191.677ZM180.179 191.847L180.145 198.725C180.145 203.016 180.247 205.706 180.485 205.808C180.655 205.876 180.723 206.115 180.655 206.319C180.553 206.489 179.669 206.659 176.916 206.659L176.984 199.236C177.018 195.184 177.086 191.779 177.086 191.745C177.086 191.677 177.799 191.677 180.179 191.847ZM161.213 203.118C161.451 203.186 161.586 203.935 161.451 206.659H160.091C159.343 206.659 158.731 206.489 158.731 206.319C158.731 206.115 159.037 205.366 159.411 204.65C159.785 203.901 160.261 203.254 160.465 203.152C160.669 203.084 161.009 203.05 161.213 203.118Z" fill="#8A997A"/>
</svg>
